<?xml version="1.0" encoding="UTF-8" standalone="no"?>
<!-- Created with Inkscape (http://www.inkscape.org/) -->
<svg width="500" height="80" viewBox="0 0 132.29167 21.166667" version="1.1" id="svg5" inkscape:version="1.2.1 (9c6d41e410, 2022-07-14)" sodipodi:docname="ensaio-logo.svg" inkscape:export-filename="ensaio-logo.png" inkscape:export-xdpi="381" inkscape:export-ydpi="381" xmlns:inkscape="http://www.inkscape.org/namespaces/inkscape" xmlns:sodipodi="http://sodipodi.sourceforge.net/DTD/sodipodi-0.dtd" xmlns="http://www.w3.org/2000/svg" xmlns:svg="http://www.w3.org/2000/svg">
  <sodipodi:namedview id="namedview7" pagecolor="#ffffff" bordercolor="#666666" borderopacity="1.0" inkscape:pageshadow="2" inkscape:pageopacity="0.0" inkscape:pagecheckerboard="0" inkscape:document-units="mm" showgrid="false" inkscape:zoom="1.28" inkscape:cx="334.375" inkscape:cy="234.375" inkscape:window-width="1050" inkscape:window-height="1627" inkscape:window-x="0" inkscape:window-y="25" inkscape:window-maximized="1" inkscape:current-layer="layer1" fit-margin-top="0" fit-margin-left="0" fit-margin-right="0" fit-margin-bottom="0" inkscape:snap-global="false" units="px" inkscape:showpageshadow="2" inkscape:deskcolor="#d1d1d1"/>
  <defs id="defs2">
    <rect x="508.49463" y="18.991272" width="2057.9141" height="386.42145" id="rect1343"/>
    <inkscape:path-effect effect="powerstroke" id="path-effect190" is_visible="true" lpeversion="1" offset_points="1.6677746,1.0236673" not_jump="true" sort_points="true" interpolator_type="CentripetalCatmullRom" interpolator_beta="0.75" start_linecap_type="peak" linejoin_type="spiro" miter_limit="4" scale_width="1" end_linecap_type="peak"/>
    <inkscape:path-effect effect="simplify" id="path-effect188" is_visible="true" lpeversion="1" steps="1" threshold="0.0031393987" smooth_angles="0" helper_size="0" simplify_individual_paths="false" simplify_just_coalesce="false" step="1"/>
    <inkscape:path-effect effect="simplify" id="path-effect185" is_visible="true" lpeversion="1" steps="1" threshold="0.00035533" smooth_angles="360" helper_size="0" simplify_individual_paths="false" simplify_just_coalesce="false"/>
    <clipPath clipPathUnits="userSpaceOnUse" id="clipPath44621">
      <circle style="fill:none;fill-opacity:1;fill-rule:evenodd;stroke:#000000;stroke-width:1.62101;stop-color:#000000" id="circle44623" cx="-73.49707" cy="31.014692" r="132.29167"/>
    </clipPath>
  </defs>
  <g inkscape:label="Layer 1" inkscape:groupmode="layer" id="layer1" transform="translate(205.78874,101.27699)">
    <g id="g12913" transform="translate(19.250845)">
      <g id="g1304" transform="matrix(0.07793802,0,0,0.07793802,-189.47719,-93.110879)">
        <circle style="fill:#1a1a1a;fill-opacity:1;fill-rule:evenodd;stroke:#ebeff7;stroke-width:1.621;paint-order:normal;stop-color:#000000" id="path3533" cx="-73.497086" cy="31.014694" r="132.29167"/>
        <g id="g44619" clip-path="url(#clipPath44621)">
          <path style="fill:#f45353;fill-opacity:1;stroke:none;stroke-width:0.314674px;stroke-linecap:butt;stroke-linejoin:miter;stroke-opacity:1" d="M -93.227841,-113.95825 -154.88498,58.138382 -68.948971,-113.95743 Z" id="path2457" sodipodi:nodetypes="cccc"/>
          <path id="path3284" style="fill:#f45353;fill-opacity:1;stroke:none;stroke-width:0.314674px;stroke-linecap:butt;stroke-linejoin:miter;stroke-opacity:1" d="M -158.03396,203.07311 -81.812865,32.961009 -111.05331,43.143904" sodipodi:nodetypes="ccc"/>
          <path style="fill:#ebeff7;fill-opacity:1;stroke:none;stroke-width:0.264583px;stroke-linecap:butt;stroke-linejoin:miter;stroke-opacity:1" d="M -158.09613,193.09946 -89.161985,34.148966 -81.345373,30.347137 -153.07012,203.26628 Z" id="path36984" sodipodi:nodetypes="ccccc"/>
          <path id="path2455" style="fill:#2270e8;fill-opacity:1;stroke:none;stroke-width:0.314674px;stroke-linecap:butt;stroke-linejoin:miter;stroke-opacity:1" d="M -65.786791,-114.05838 53.31212,-112.5651 -39.341929,17.834461 23.308434,-1.4211582 -159.51368,202.35405 -83.177954,33.984827 -154.88498,58.138382 v 0 m 0,0 91.461591,-172.179092" sodipodi:nodetypes="cccccccccc" clip-path="none"/>
          <path style="fill:#ebeff7;fill-opacity:1;stroke:none;stroke-width:0.264583px;stroke-linecap:butt;stroke-linejoin:miter;stroke-opacity:1" d="m -150.98342,56.838382 87.560031,-170.879092 -6.774473,0.15806 -80.683888,160.834809 -4.00323,11.186223 z" id="path25081" sodipodi:nodetypes="cccccc"/>
        </g>
        <circle style="fill:none;fill-opacity:1;fill-rule:evenodd;stroke:#ebeff7;stroke-width:7;stroke-miterlimit:4;stroke-dasharray:none;paint-order:normal;stop-color:#000000" id="path3533-3" cx="-73.497086" cy="31.014694" r="132.29167"/>
      </g>
      <g aria-label="Ensaio" transform="matrix(0.0973662,0,0,0.0973662,-233.45336,-109.40439)" id="text1341" style="font-size:293.333px;line-height:1.25;white-space:pre;shape-inside:url(#rect1343);fill:#333333">
        <path d="m 527.85412,287.35528 q -3.81333,0 -6.15999,-0.88 -2.34667,-0.58667 -2.34667,-2.34667 0,-3.51999 9.67999,-5.27999 11.14666,-2.05333 16.42665,-6.74666 5.27999,-4.69333 5.27999,-15.25332 V 124.84879 q 0,-10.55999 -4.39999,-14.95998 -4.10666,-4.4 -15.25332,-6.45333 -4.98666,-0.88 -7.33332,-2.34666 -2.34667,-1.466668 -2.34667,-3.519999 0,-1.759998 2.34667,-2.346664 2.34666,-0.879999 6.15999,-0.879999 11.14665,0 18.77331,0.293333 7.91999,0.293333 15.25332,0.586666 7.62666,0 17.89331,0 9.67999,0 20.23998,0 10.85332,-0.293333 19.94664,-0.293333 9.97333,-0.293333 16.71999,-0.293333 7.03999,-0.293333 8.21332,-0.293333 1.46667,0 3.22666,0.586666 1.76,0.586666 2.05333,2.053331 1.46667,8.213325 2.93333,16.426645 1.46667,7.91999 1.46667,13.78665 0,2.64 -1.46667,3.52 -1.17333,0.88 -2.63999,0.88 -1.46667,0 -2.05333,-0.58667 -0.58667,-0.88 -1.17334,-2.34666 -1.46666,-4.98666 -2.93333,-9.38666 -1.46666,-4.69332 -3.51999,-6.74666 -4.10666,-4.69332 -9.09333,-6.15999 -4.98666,-1.76 -10.55998,-1.76 h -38.42663 q -2.34666,0 -6.45332,2.64 -4.10667,2.64 -4.10667,6.74666 v 62.1866 q 0,2.63999 1.46667,4.69333 1.76,1.75999 3.81333,1.75999 h 29.03997 q 8.50665,0 11.73332,-2.93333 3.22666,-3.22666 5.27999,-11.43998 1.76,-6.45333 5.27999,-6.45333 1.17334,0 2.34667,1.17333 1.46666,1.17333 1.46666,3.52 0,1.17333 -0.29333,5.27999 0,4.10666 -0.29333,8.50666 -0.29334,4.39999 -0.29334,6.74666 0,2.93333 0,7.91999 0.29334,4.69333 0.29334,9.09332 0.29333,4.4 0.29333,5.57333 0,2.05333 -0.58667,3.52 -0.29333,1.46666 -2.05333,1.46666 -4.39999,0 -6.74666,-9.38666 -1.75999,-6.74665 -4.69332,-9.97332 -2.93333,-3.22666 -8.79999,-3.22666 h -27.27997 q -4.98666,0 -7.62666,1.46666 -2.34667,1.17334 -2.34667,6.16 v 56.31994 q 0,11.14665 4.69333,15.54664 4.69333,4.10667 14.66665,4.10667 h 21.70665 q 9.38665,0 15.54664,-0.88 6.45333,-1.17333 11.14666,-4.10666 4.69333,-3.22667 8.21332,-8.50666 3.81333,-5.28 8.50666,-14.07999 0.88,-1.75999 2.05333,-2.93333 1.17333,-1.17333 2.64,-0.88 1.46666,0.29334 2.34666,1.46667 0.88,0.88 0.88,2.64 0,2.63999 -1.46666,9.38665 -1.46667,6.45333 -3.81333,13.49332 -2.05333,7.03999 -3.81333,11.14666 -0.88,2.05333 -1.76,3.51999 -0.58667,1.46667 -2.34666,1.46667 -14.07999,0 -26.10664,-0.29334 -12.02665,-0.29333 -22.87998,-0.58666 -10.85332,-0.29334 -21.41331,-0.58667 -10.26665,-0.29333 -21.4133,-0.29333 -6.45333,0 -11.14666,0.29333 -4.69333,0.58667 -9.67999,0.88 -4.98666,0.58667 -12.90665,0.58667 z" style="font-family:'EB Garamond';-inkscape-font-specification:'EB Garamond'" id="path285"/>
        <path d="m 686.84037,286.76861 q -2.64,0 -4.4,-0.88 -1.46666,-0.58666 -1.46666,-2.34666 0,-2.34667 1.76,-2.93333 1.75999,-0.88 4.98666,-1.76 4.39999,-1.17333 8.50665,-3.22666 4.10667,-2.05333 4.10667,-7.91999 v -63.0666 q 0,-7.91999 -1.76,-13.49332 -1.46667,-5.57333 -9.09332,-7.62666 -1.17334,-0.58666 -2.05334,-1.17333 -0.87999,-0.88 -0.87999,-2.64 0,-3.22666 2.63999,-3.51999 10.26666,-2.64 16.71998,-6.45333 6.45333,-3.81333 12.61332,-8.50666 0.88,-0.58666 1.46667,-0.88 0.88,-0.58666 1.76,-0.58666 0.58666,0 0.88,0.58666 0.58666,0.58667 0.58666,1.46667 0,2.05333 -0.88,8.50666 -0.58666,6.15999 -0.58666,10.26665 0,1.17333 0,2.34667 0.29333,0.88 0.58666,1.17333 10.26666,-9.67999 21.70664,-14.66665 11.73333,-4.98666 25.51998,-4.98666 14.37331,0 23.75997,11.73332 9.38666,11.73332 9.38666,29.03996 v 62.47994 q 0,5.86666 4.10666,7.91999 4.10666,1.75999 8.50666,3.22666 2.34666,0.88 4.39999,2.05333 2.34666,0.88 2.34666,3.22666 0,1.76 -2.05333,2.05333 -2.05333,0.58667 -3.81333,0.58667 -5.86666,0 -9.09332,-0.58667 -3.22666,-0.29333 -6.15999,-0.58666 -2.93333,-0.29333 -8.21333,-0.29333 -4.98666,0 -8.21332,0.29333 -3.22666,0.29333 -6.74666,0.58666 -3.22666,0.58667 -9.09332,0.58667 -1.46667,0 -3.81333,-0.58667 -2.05333,-0.29333 -2.05333,-2.05333 0,-2.34666 2.05333,-3.22666 2.34666,-1.17333 4.69333,-2.05333 4.39999,-1.46667 8.50665,-3.22666 4.10667,-2.05333 4.10667,-7.91999 v -61.59994 q 0,-12.90665 -7.33333,-19.94664 -7.03999,-7.33333 -19.06664,-7.62666 -10.55999,0 -18.47998,3.52 -7.92,3.22666 -14.07999,8.21332 -1.17333,1.17333 -1.76,3.22666 -0.58666,1.76 -0.58666,3.52 v 70.69326 q 0,5.86666 4.10666,7.91999 4.10666,2.05333 8.50666,3.22666 6.74666,1.76 6.74666,4.69333 0,1.76 -1.46667,2.34666 -1.46666,0.88 -4.39999,0.88 -5.86666,0 -9.38666,-0.58667 -3.22666,-0.29333 -6.15999,-0.58666 -2.93333,-0.29333 -8.21333,-0.29333 -4.98666,0 -8.21332,0.29333 -2.93333,0.29333 -6.45333,0.58666 -3.22666,0.58667 -9.09332,0.58667 z" style="font-family:'EB Garamond';-inkscape-font-specification:'EB Garamond'" id="path287"/>
        <path d="m 871.05346,289.99527 q -9.09332,0 -17.01331,-2.93333 -7.92,-2.63999 -13.49332,-7.62665 -1.46667,-3.22667 -2.34667,-10.85333 -0.58666,-7.62665 -0.88,-12.61331 0,-2.64 3.81333,-2.64 1.17334,0 2.05333,0.58666 1.17334,0.29334 1.46667,1.46667 3.81333,14.37332 12.02665,20.53331 8.50666,6.15999 17.01332,6.15999 8.50665,0 14.37331,-5.57332 6.16,-5.86666 6.16,-14.37332 0,-7.91999 -5.28,-13.49332 -5.27999,-5.86666 -18.47998,-14.07998 -9.97332,-6.16 -16.13331,-11.73332 -6.15999,-5.57333 -9.09332,-11.43999 -2.64,-5.86666 -2.64,-13.19999 0,-9.38665 4.39999,-17.01331 4.4,-7.62666 13.19999,-12.02666 8.79999,-4.69332 21.99997,-4.69332 8.79999,0 14.66665,1.75999 5.86667,1.76 8.8,3.81333 2.34666,3.22667 3.81332,10.26666 1.76,6.74666 1.76,12.90665 0,2.05333 -2.93333,2.05333 -1.76,0 -3.51999,-0.58666 -1.46667,-0.88 -2.05333,-2.05333 -3.81333,-9.67999 -9.67999,-14.66666 -5.57333,-5.27999 -14.07999,-5.27999 -7.33332,0 -13.19998,4.4 -5.57333,4.39999 -5.57333,12.90665 0,6.74666 4.10666,12.02665 4.4,5.28 16.13332,12.02665 17.01331,9.67999 25.22664,18.18665 8.50665,8.21333 8.50665,21.99998 0,15.83998 -12.02665,25.8133 -12.02665,9.97332 -31.0933,9.97332 z" style="font-family:'EB Garamond';-inkscape-font-specification:'EB Garamond'" id="path289"/>
        <path d="m 957.88002,289.99527 q -5.27999,0 -10.85332,-4.10666 -5.27999,-4.10666 -9.09332,-9.97332 -3.52,-5.86666 -3.52,-11.14665 0,-9.38666 4.98666,-14.66666 4.98666,-5.27999 15.83998,-9.67998 l 29.91997,-12.31999 q 5.86666,-2.34666 6.74666,-4.10666 1.17333,-1.76 1.46666,-7.62666 l 0.58667,-18.77331 q 0.29333,-7.62666 -4.39999,-13.19999 -4.4,-5.57333 -12.90666,-5.57333 -4.39999,0 -8.79999,1.46667 -4.39999,1.46666 -7.33332,3.81333 -1.76,1.17333 -2.34667,3.51999 -0.58666,2.34667 -0.58666,4.98667 0,1.17333 0,2.63999 0.29333,1.46667 0.29333,2.64 0,1.46666 -3.81333,4.10666 -3.51999,2.34667 -8.21332,4.4 -4.4,1.75999 -7.33333,1.75999 -1.46666,0 -2.34666,-0.58666 -0.88,-0.88 -0.88,-2.05333 0,-4.69333 2.93333,-9.97332 3.22666,-5.57333 8.79999,-10.26666 6.74666,-6.15999 14.66665,-10.85332 7.91999,-4.69333 15.54665,-7.33333 7.62666,-2.63999 13.49332,-2.63999 10.55998,0 17.30668,7.62665 7.04,7.33333 6.7466,18.47998 l -1.4666,70.39993 q -0.2934,6.15999 2.64,9.97332 3.2266,3.81333 7.9199,3.81333 7.3334,0 10.8534,-3.22667 1.4666,-1.46666 2.3466,-1.46666 1.4667,0 2.3467,0.88 0.88,0.88 0.88,2.34666 0,3.22667 -3.2267,6.45333 -4.6933,4.69333 -10.2666,7.33332 -5.28,2.93333 -9.9733,2.93333 -13.4934,0 -21.41335,-15.25331 h -0.88 q -9.67999,7.91999 -18.47998,11.43998 -8.79999,3.81333 -18.18665,3.81333 z m 13.78665,-14.07998 q 5.86666,0 9.97332,-1.76 4.10667,-2.05333 7.33333,-5.27999 1.46666,-1.46667 2.34666,-3.81333 1.17334,-2.64 1.46667,-8.21333 l 0.58666,-14.37331 q 0.29334,-3.22667 -0.29333,-4.69333 -0.58666,-1.46667 -2.34666,-1.46667 -0.58667,0 -2.05333,0.29334 -1.46667,0.29333 -3.81333,1.17333 -15.54665,5.57333 -21.70665,11.73332 -5.86666,5.86666 -5.86666,10.85332 0,7.62666 4.4,11.73332 4.69333,3.81333 9.97332,3.81333 z" style="font-family:'EB Garamond';-inkscape-font-specification:'EB Garamond'" id="path291"/>
        <path d="m 1053.5066,286.76861 q -2.64,0 -4.4,-0.88 -1.4666,-0.58666 -1.4666,-2.34666 0,-2.34667 2.0533,-3.22667 2.3467,-0.87999 4.6933,-1.46666 6.16,-1.46667 9.3867,-3.52 3.2266,-2.34666 3.2266,-7.62665 V 204.0487 q 0,-7.91999 -2.9333,-14.07998 -2.64,-6.15999 -10.2666,-7.33333 -1.4667,-0.29333 -2.3467,-1.17333 -0.5867,-0.88 -0.5867,-2.64 0,-3.22666 2.64,-3.51999 11.7333,-2.64 19.36,-7.03999 7.6267,-4.69333 11.44,-7.62666 2.64,-2.05333 4.1067,-2.05333 1.76,0 1.76,1.46666 0,2.34667 -0.88,9.38666 -0.5867,6.74666 -1.1734,15.25331 -0.5866,8.21333 -0.5866,14.95999 v 68.05326 q 0,4.98666 3.2266,7.33332 3.52,2.34666 9.3867,3.81333 2.3466,0.58667 4.4,1.46666 2.3466,0.88 2.3466,3.22667 0,3.22666 -5.8666,3.22666 -5.5734,0 -9.0933,-0.58667 -3.2267,-0.29333 -6.4534,-0.58666 -2.9333,-0.29333 -8.2133,-0.29333 -4.9867,0 -8.2133,0.29333 -3.2267,0.29333 -6.4533,0.58666 -3.2267,0.58667 -9.0934,0.58667 z m 23.4667,-152.23983 q -6.16,0 -10.56,-4.10666 -4.1067,-4.4 -4.1067,-10.55999 0,-6.45333 4.1067,-10.55999 4.4,-4.39999 10.56,-4.39999 6.4533,0 10.56,4.39999 4.4,4.10666 4.4,10.55999 0,6.15999 -4.4,10.55999 -4.1067,4.10666 -10.56,4.10666 z" style="font-family:'EB Garamond';-inkscape-font-specification:'EB Garamond'" id="path293"/>
        <path d="m 1181.1067,289.99527 q -16.4266,0 -29.6266,-7.62665 -13.2,-7.62666 -21.12,-20.82665 -7.6266,-13.49332 -7.6266,-30.50663 0,-12.31999 4.6933,-24.05331 4.9866,-11.73332 13.7866,-21.41331 8.8,-9.67999 20.5333,-15.25331 11.7334,-5.86666 25.2267,-5.86666 17.0133,0 30.5066,8.21332 13.7867,8.21333 21.7067,21.70664 8.2133,13.19999 8.2133,29.03997 0,17.01332 -7.6267,32.26663 -7.3333,15.25332 -22,24.93331 -14.6666,9.38665 -36.6666,9.38665 z m 6.16,-8.79999 q 9.9733,0 17.8933,-3.81333 7.92,-3.81332 12.32,-12.31998 3.52,-6.74666 4.6933,-16.42665 1.1734,-9.67999 1.1734,-18.18665 0,-14.07998 -5.28,-26.98663 -4.9867,-13.19999 -14.3733,-21.41331 -9.0934,-8.50666 -21.7067,-8.50666 -7.92,0 -14.3733,2.64 -6.16,2.34666 -11.44,9.09332 -5.8666,7.33333 -7.6266,17.89331 -1.76,10.55999 -1.76,21.11998 0,14.37332 5.28,27.5733 5.2799,12.90666 14.3733,21.11998 9.0933,8.21332 20.8266,8.21332 z" style="font-family:'EB Garamond';-inkscape-font-specification:'EB Garamond'" id="path295"/>
      </g>
    </g>
  </g>
</svg>