<?xml version="1.0" encoding="UTF-8" standalone="no"?>
<!-- Created with Inkscape (http://www.inkscape.org/) -->
<svg width="500" height="80" viewBox="0 0 132.29166 21.166668" version="1.1" id="svg911" inkscape:version="1.2.1 (9c6d41e410, 2022-07-14)" sodipodi:docname="verde-logo.svg" xmlns:inkscape="http://www.inkscape.org/namespaces/inkscape" xmlns:sodipodi="http://sodipodi.sourceforge.net/DTD/sodipodi-0.dtd" xmlns="http://www.w3.org/2000/svg" xmlns:svg="http://www.w3.org/2000/svg" xmlns:rdf="http://www.w3.org/1999/02/22-rdf-syntax-ns#" xmlns:cc="http://creativecommons.org/ns#" xmlns:dc="http://purl.org/dc/elements/1.1/">
  <defs id="defs905"/>
  <sodipodi:namedview id="base" pagecolor="#ffffff" bordercolor="#666666" borderopacity="1.0" inkscape:pageopacity="0.0" inkscape:pageshadow="2" inkscape:zoom="0.9899495" inkscape:cx="-58.588847" inkscape:cy="86.368042" inkscape:document-units="mm" inkscape:current-layer="layer1" showgrid="false" fit-margin-top="0" fit-margin-left="0" fit-margin-right="0" fit-margin-bottom="0" inkscape:window-width="1501" inkscape:window-height="1438" inkscape:window-x="-496" inkscape:window-y="196" inkscape:window-maximized="0" units="px" inkscape:showpageshadow="2" inkscape:pagecheckerboard="0" inkscape:deskcolor="#d1d1d1"/>
  <metadata id="metadata908">
    <rdf:RDF>
      <cc:Work rdf:about="">
        <dc:format>image/svg+xml</dc:format>
        <dc:type rdf:resource="http://purl.org/dc/dcmitype/StillImage"/>
        <dc:title/>
      </cc:Work>
    </rdf:RDF>
  </metadata>
  <g inkscape:label="Layer 1" inkscape:groupmode="layer" id="layer1" transform="translate(-13.04029,-0.58268712)">
    <g id="g751" transform="translate(12.433934)">
      <g id="g1040" transform="matrix(0.69511094,0,0,0.6775132,-79.746242,11.813248)" style="stroke-linecap:butt;stroke-linejoin:round;stroke-miterlimit:100000">
        <path sodipodi:nodetypes="ccccccccccccccccccccccccc" inkscape:connector-curvature="0" id="path926" d="m 200.86847,-0.955309 v -15.03506 h 8.37832 8.37832 v 2.18066 2.18066 h -6.31243 -6.31243 v 4.24654 4.24655 h 6.31243 6.31243 v 2.18065 2.18066 h -6.31243 -6.31243 v 4.24655 4.24654 h 6.31243 6.31243 v 2.18066 2.18066 h -8.37832 -8.37832 z" style="fill:#20a684;fill-opacity:1;stroke-width:0.229543;stroke-linecap:butt;stroke-linejoin:round;stroke-miterlimit:100000"/>
        <path sodipodi:nodetypes="cccccccccccccccccccccccccc" inkscape:connector-curvature="0" id="path926-7" d="m 243.56347,-0.955319 v -15.03505 h 6.31243 6.31243 v 2.18066 2.18065 h 2.18066 2.18065 v 10.67374 10.67375 h -2.18065 -2.18066 v 2.18066 2.18067 h -6.31243 -6.31243 z m 12.62486,0 v -10.67374 h -4.24655 -4.24654 v 10.67374 10.67375 h 4.24654 4.24655 z" style="fill:#6ccd5a;fill-opacity:1;stroke-width:0.229543;stroke-linecap:butt;stroke-linejoin:round;stroke-miterlimit:100000"/>
        <path sodipodi:nodetypes="ccccccccccccccccccccccccccccccccccccccccc" inkscape:connector-curvature="0" id="path926-5" d="m 183.88228,11.899101 v -2.18066 h -2.18065 -2.18066 v -4.24654 -4.24655 h -2.18066 -2.18066 v -8.60786 -8.60786 h 2.18066 2.18066 v 8.60786 8.60786 h 2.18066 2.18065 v 2.06589 2.06588 h 2.06589 2.06589 v -2.06588 -2.06589 h 2.06588 2.06589 v -8.60786 -8.60786 h 2.18066 2.18066 v 8.60786 8.60786 h -2.18066 -2.18066 v 4.24655 4.24654 h -2.06589 -2.06588 v 2.18066 2.18066 h -2.06589 -2.06589 z" style="fill:#26818e;fill-opacity:1;stroke-width:0.229543;stroke-linecap:butt;stroke-linejoin:round;stroke-miterlimit:100000"/>
        <path sodipodi:nodetypes="cccccccccccccccccccccccccccccccccccccc" inkscape:connector-curvature="0" id="path926-7-3" d="m 221.98643,-0.955319 v -15.03505 h 8.60787 8.60785 v 6.42719 6.42721 h -2.29543 -2.29543 v 2.18065 2.18066 h 2.29543 2.29543 v 6.4272 6.42722 h -2.29543 -2.29543 v -4.36133 -4.36132 h -2.06588 -2.06589 v -2.06588 -2.06589 h -2.06589 -2.06588 v 6.4272 6.42722 h -2.18066 -2.18066 z m 12.62486,-6.4272 v -4.24654 h -4.13177 -4.13177 v 4.24654 4.24655 h 4.13177 4.13177 z" style="fill:#3dbc74;fill-opacity:1;stroke-width:0.229543;stroke-linecap:butt;stroke-linejoin:round;stroke-miterlimit:100000"/>
        <path sodipodi:nodetypes="ccccccccccccccccccccccccc" inkscape:connector-curvature="0" id="path926-7-5" d="m 264.91096,-0.955319 v -15.03505 h 8.60786 8.60786 v 2.18066 2.18065 h -6.42721 -6.4272 v 4.24654 4.24656 h 6.4272 6.42721 v 2.18065 2.18066 h -6.42721 -6.4272 v 4.24655 4.24654 h 6.4272 6.42721 v 2.18066 2.18067 h -8.60786 -8.60786 z" style="fill:#a0da39;fill-opacity:1;stroke-width:0.229543;stroke-linecap:butt;stroke-linejoin:round;stroke-miterlimit:100000"/>
      </g>
      <g id="g22418-3-1-4-1" transform="matrix(0.11198952,0.1147212,-0.11467979,0.11202995,61.600755,-40.078194)" style="stroke-linecap:butt;stroke-linejoin:round;stroke-miterlimit:100000">
        <path id="path1096-6-9-5-0" style="fill:#1e7e7a;fill-opacity:1;fill-rule:evenodd;stroke-width:8.54935;stroke-linecap:butt;stroke-linejoin:round;stroke-miterlimit:100000;stop-color:#000000" d="m 78.285565,298.5405 c -25.22182,0.42894 -32.385818,28.0436 -38.90565,46.20612 -6.519832,18.16252 -18.19027,32.63908 -18.03797,49.2902 0.15223,16.65114 17.22616,43.39098 58.58525,43.74698 41.359085,0.356 57.263095,-29.04392 57.103735,-45.70051 C 136.87159,375.4267 124.42816,360.27934 118.2211,343.38307 112.01404,326.4868 103.5074,298.11151 78.285565,298.5405 Z" sodipodi:nodetypes="zzzzzzz"/>
        <path id="path1096-2-0-7-4-0-6" style="fill:#37b360;fill-opacity:1;fill-rule:evenodd;stroke-width:8.54935;stroke-linecap:butt;stroke-linejoin:round;stroke-miterlimit:100000;stop-color:#000000" d="m 78.160156,309.67578 c -5.037855,0.18391 -9.715189,3.18812 -12.387959,7.39733 -5.822007,8.24657 -8.404007,14.66308 -12.292837,27.35783 -5.668646,20.10546 -31.784689,41.42458 -18.574736,61.37943 4.980477,7.91742 12.986413,13.58825 21.691178,16.76961 9.594062,3.54719 20.000587,4.45392 30.152154,3.73144 9.442025,-0.77386 18.925034,-3.63607 26.524124,-9.44009 6.28906,-4.81307 11.3592,-11.49154 13.45229,-19.19629 3.43789,-19.20804 -14.70541,-34.3028 -21.13101,-50.05112 -4.31441,-10.98388 -7.387749,-20.44509 -13.312735,-29.56409 -4.201648,-4.89514 -8.22746,-8.54816 -14.120469,-8.38405 z" sodipodi:nodetypes="ccccccccccc"/>
        <path id="path1096-2-0-9-5-7-3-3" style="fill:#8fd62c;fill-opacity:1;fill-rule:evenodd;stroke-width:8.54935;stroke-linecap:butt;stroke-linejoin:round;stroke-miterlimit:100000;stop-color:#000000" d="m 67.430728,337.47877 c -2.04007,5.42565 -2.713441,6.37817 -6.15113,16.25904 -3.437689,9.88087 -10.521531,13.48624 -15.44343,28.91155 -4.921899,15.42531 9.541479,28.04095 24.61883,30.9066 7.02174,1.1872 14.20867,1.17466 21.20815,-0.23472 20.558292,-4.7042 26.815202,-20.90531 16.899192,-37.09106 -3.86858,-6.10687 -8.09024,-13.43109 -10.776922,-18.98381 -2.68668,-5.55272 -3.80895,-9.29271 -5.72505,-13.93327 -2.829142,-10.00184 -8.16565,-16.60849 -13.588484,-16.79365 -3.94551,-0.13472 -7.936717,3.12986 -11.041156,10.95932 z" sodipodi:nodetypes="czzccczcsc"/>
        <path id="circle20386-3-8-6-2" style="fill:#fce51e;fill-opacity:1;fill-rule:evenodd;stroke-width:4.08333;stroke-linecap:butt;stroke-linejoin:round;stroke-miterlimit:100000;stop-color:#000000" d="m 91.341981,372.35429 c 5.626935,7.8581 7.14671,17.79219 0.43321,24.74495 -6.7135,6.95276 -17.79218,7.14671 -24.74494,0.43321 -6.95276,-6.7135 -5.64757,-16.60723 -0.43321,-24.74494 2.667781,-4.16343 8.107568,-13.57642 12.33419,-13.80562 4.577563,-0.24823 9.462094,9.25456 12.41075,13.3724 z" sodipodi:nodetypes="ssssss"/>
      </g>
    </g>
  </g>
</svg>